<svg t="1682150688360" class="icon" viewBox="0 0 1024 1024" version="1.1"
  xmlns="http://www.w3.org/2000/svg" p-id="20731" width="64" height="64">
  <path
    d="M552.86408 339.872v643.04A40.976 40.976 0 0 1 512.00008 1024a40.976 40.976 0 0 1-40.864-41.104V339.872L148.76808 622.88a40.704 40.704 0 0 1-57.664-3.936 41.264 41.264 0 0 1 3.904-57.984L485.12008 218.48a40.704 40.704 0 0 1 53.76 0L928.99208 560.96a41.264 41.264 0 0 1 3.904 57.984 40.704 40.704 0 0 1-57.664 3.936L552.86408 339.872z m-496-257.68A40.976 40.976 0 0 1 16.00008 41.12 40.976 40.976 0 0 1 56.86408 0h910.272C989.69608 0 1008.00008 18.4 1008.00008 41.104a40.976 40.976 0 0 1-40.864 41.088H56.86408z"
    p-id="20732"></path>
</svg>