<svg t="1684419460568" class="icon" viewBox="0 0 1024 1024" version="1.1"
  xmlns="http://www.w3.org/2000/svg" p-id="6447" width="200" height="200">
  <path
    d="M1009.679468 507.189361v0.888118l-125.81671-145.725354a23.165077 23.165077 0 0 0-15.912113-11.989592l-403.279561-81.410813a23.387106 23.387106 0 0 0-13.321769 1.184157l-325.64325 125.81671a25.90344 25.90344 0 0 0-5.254698 3.108413h-1.036137l-4.662619 5.254698L12.100977 577.20266a22.202949 22.202949 0 0 0-1.406187 20.130673 22.943047 22.943047 0 0 0 15.468055 13.32177l85.111304 22.202948v239.643828a22.795027 22.795027 0 0 0 16.652211 22.202949l454.272333 128.111015a23.387106 23.387106 0 0 0 18.576467-2.072275l286.196011-158.381035a22.647008 22.647008 0 0 0 11.841573-20.056664l-2.960394-238.015612 108.054351-62.538306a22.943047 22.943047 0 0 0 11.027465-15.764093 22.795027 22.795027 0 0 0-5.328708-18.576467zM67.16429 575.426424l78.524429-132.403585 399.653079 95.39867L450.979266 674.969644 67.2383 575.352414z m90.662041 281.237352V645.883781l297.889564 77.414282a23.239086 23.239086 0 0 0 24.941312-9.325238l80.670714-117.30558 3.700492 375.007806-407.054062-115.307315z m436.287945-353.692975L209.929251 411.346632l251.63342-96.656837 337.928881 69.19919-37.004914 21.092802z m16.800231 461.081237l-3.700491-377.45013 71.493495 118.415727a23.165077 23.165077 0 0 0 31.602197 7.993062l139.582538-81.410813 2.368315 198.272333-241.346054 133.217693z m95.69471-301.368025l-76.526164-126.556809 227.358196-133.217693 99.321191 114.271177zM485.171807 161.711477a26.939578 26.939578 0 0 0 26.939578-27.013587V26.939578a26.939578 26.939578 0 1 0-53.879156 0V134.69789a26.939578 26.939578 0 0 0 26.939578 26.939577z m-199.382481 29.603932a27.013588 27.013588 0 1 0 43.73981-31.602197L266.398751 72.529633a26.939578 26.939578 0 0 0-43.739809 31.528187l63.056375 87.405609z m362.648165 0.962128a23.461116 23.461116 0 0 0 34.48858-5.772767l58.245736-88.811795a29.159873 29.159873 0 0 0-5.624747-38.189072 23.461116 23.461116 0 0 0-34.71061 6.142816l-58.245736 88.811795a29.603932 29.603932 0 0 0 5.624747 38.263082z"
    p-id="6448"></path>
</svg>